<svg width="28" height="28" viewBox="0 0 28 28" fill="none" xmlns="http://www.w3.org/2000/svg">
<path d="M12.8333 16.9167C12.8333 18.5267 15.4455 19.8333 18.6667 19.8333C21.8878 19.8333 24.5 18.5267 24.5 16.9167M3.5 11.0833C3.5 12.6933 6.11217 14 9.33333 14C10.647 14 11.8592 13.783 12.8333 13.4167M3.5 15.1667C3.5 16.7767 6.11217 18.0833 9.33333 18.0833C10.647 18.0833 11.858 17.8663 12.8333 17.5M18.6667 15.1667C15.4455 15.1667 12.8333 13.86 12.8333 12.25C12.8333 10.64 15.4455 9.33334 18.6667 9.33334C21.8878 9.33334 24.5 10.64 24.5 12.25C24.5 13.86 21.8878 15.1667 18.6667 15.1667Z" stroke="#94A3BB" stroke-width="1.5" stroke-linecap="round" stroke-linejoin="round"/>
<path d="M3.5 6.41666V19.25C3.5 20.86 6.11217 22.1667 9.33333 22.1667C10.647 22.1667 11.858 21.9497 12.8333 21.5833M12.8333 21.5833V12.25M12.8333 21.5833C12.8333 23.1933 15.4455 24.5 18.6667 24.5C21.8878 24.5 24.5 23.1933 24.5 21.5833V12.25M15.1667 9.91666V6.41666" stroke="#94A3BB" stroke-width="1.5" stroke-linecap="round" stroke-linejoin="round"/>
<path d="M9.33333 9.33333C6.11217 9.33333 3.5 8.02667 3.5 6.41667C3.5 4.80667 6.11217 3.5 9.33333 3.5C12.5545 3.5 15.1667 4.80667 15.1667 6.41667C15.1667 8.02667 12.5545 9.33333 9.33333 9.33333Z" stroke="#94A3BB" stroke-width="1.5" stroke-linecap="round" stroke-linejoin="round"/>
</svg>
