<svg width="16" height="16" viewBox="0 0 16 16" fill="none" xmlns="http://www.w3.org/2000/svg">
<path d="M7.99992 15.1667C4.04792 15.1667 0.833252 11.952 0.833252 8.00001C0.833252 4.04801 4.04792 0.833344 7.99992 0.833344C11.9519 0.833344 15.1666 4.04801 15.1666 8.00001C15.1666 11.952 11.9519 15.1667 7.99992 15.1667ZM7.99992 1.83334C4.59925 1.83334 1.83325 4.59934 1.83325 8.00001C1.83325 11.4007 4.59925 14.1667 7.99992 14.1667C11.4006 14.1667 14.1666 11.4007 14.1666 8.00001C14.1666 4.59934 11.4006 1.83334 7.99992 1.83334ZM8.47388 8.90935C8.48988 8.86135 8.5806 8.67938 9.0686 8.35271C9.85527 7.82538 10.2073 7.07198 10.0613 6.23064C9.91328 5.38064 9.22055 4.68269 8.37655 4.53403C7.75988 4.42469 7.13523 4.59063 6.66056 4.98797C6.18123 5.38997 5.90666 5.97994 5.90666 6.60727C5.90666 6.88327 6.13066 7.10727 6.40666 7.10727C6.68266 7.10727 6.90666 6.88327 6.90666 6.60727C6.90666 6.2766 7.0513 5.96541 7.3033 5.75408C7.55397 5.54408 7.87389 5.45808 8.20256 5.51808C8.63322 5.59408 9.00058 5.96538 9.07658 6.40138C9.10525 6.56604 9.19263 7.066 8.51196 7.52133C7.96063 7.89133 7.64728 8.23067 7.52661 8.59067C7.43861 8.85267 7.57988 9.13597 7.84188 9.22397C7.89455 9.24197 7.9479 9.25001 8.00057 9.25001C8.20857 9.25001 8.40321 9.11802 8.47388 8.90935ZM8.67993 11C8.67993 10.632 8.38193 10.3333 8.01327 10.3333H8.00659C7.63859 10.3333 7.34318 10.632 7.34318 11C7.34318 11.368 7.64527 11.6667 8.01327 11.6667C8.38127 11.6667 8.67993 11.368 8.67993 11Z" fill="#64748B"/>
</svg>
